<svg width="140" height="70" viewBox="0 0 140 70" fill="none" xmlns="http://www.w3.org/2000/svg">
<g clip-path="url(#clip0_73_1556)">
<path d="M19.7 15H13.6667V70H19.7V15Z" fill="url(#paint0_linear_73_1556)" fill-opacity="0.9"/>
<path d="M13.6667 70H134.333" stroke="white"/>
<path d="M13.6667 16V70" stroke="white"/>
<path d="M16.6833 20C16.6833 17.2386 15.3327 15 13.6667 15C12.0006 15 10.65 17.2386 10.65 20V65C10.65 67.7614 12.0006 70 13.6667 70C15.3327 70 16.6833 67.7614 16.6833 65V20Z" fill="#F3F3F3"/>
<path d="M10.65 68.4917V45.25H16.6833V68.4917C14.6722 70.5028 12.6611 70.5028 10.65 68.4917Z" fill="#FF9F43" fill-opacity="0.85"/>
<path d="M46.85 20C46.85 17.2386 45.4994 15 43.8333 15C42.1673 15 40.8167 17.2386 40.8167 20V65C40.8167 67.7614 42.1673 70 43.8333 70C45.4994 70 46.85 67.7614 46.85 65V20Z" fill="#F3F3F3"/>
<path d="M40.8167 68.4917V23.25H46.85V68.4917C44.8389 70.5028 42.8278 70.5028 40.8167 68.4917Z" fill="#FF9F43" fill-opacity="0.85"/>
<path d="M77.0167 20C77.0167 17.2386 75.6661 15 74 15C72.3339 15 70.9833 17.2386 70.9833 20V65C70.9833 67.7614 72.3339 70 74 70C75.6661 70 77.0167 67.7614 77.0167 65V20Z" fill="#F3F3F3"/>
<path d="M70.9833 68.4917V34.25H77.0167V68.4917C75.0056 70.5028 72.9944 70.5028 70.9833 68.4917Z" fill="#FF9F43" fill-opacity="0.85"/>
<path d="M107.183 20C107.183 17.2386 105.833 15 104.167 15C102.501 15 101.15 17.2386 101.15 20V65C101.15 67.7614 102.501 70 104.167 70C105.833 70 107.183 67.7614 107.183 65V20Z" fill="#F3F3F3"/>
<path d="M101.15 68.4917V45.25H107.183V68.4917C105.172 70.5028 103.161 70.5028 101.15 68.4917Z" fill="#FF9F43" fill-opacity="0.85"/>
<path d="M137.35 20C137.35 17.2386 135.999 15 134.333 15C132.667 15 131.317 17.2386 131.317 20V65C131.317 67.7614 132.667 70 134.333 70C135.999 70 137.35 67.7614 137.35 65V20Z" fill="#F3F3F3"/>
<path d="M131.317 68.4917V34.25H137.35V68.4917C135.339 70.5028 133.328 70.5028 131.317 68.4917Z" fill="#FF9F43" fill-opacity="0.85"/>
<path d="M4 15H144" stroke="white"/>
</g>
<defs>
<linearGradient id="paint0_linear_73_1556" x1="13.6667" y1="15" x2="13.6667" y2="70" gradientUnits="userSpaceOnUse">
<stop stop-color="#D8E3F0" stop-opacity="0.16"/>
<stop offset="1" stop-color="#BED1E6" stop-opacity="0.25"/>
</linearGradient>
<clipPath id="clip0_73_1556">
<rect width="140" height="70" fill="white"/>
</clipPath>
</defs>
</svg>
