<svg width="350" height="230" viewBox="0 0 350 230" fill="none" xmlns="http://www.w3.org/2000/svg">
<path d="M60.4447 10H55.0625V201.539H60.4447V10Z" fill="url(#paint0_linear_73_1668)" fill-opacity="0.9"/>
<path d="M70.0549 226.684C70.0205 226.684 69.9887 226.677 69.9594 226.662C69.9302 226.647 69.9064 226.626 69.8881 226.598L69.9259 226.555C69.9592 226.604 70.0024 226.629 70.0558 226.629C70.1303 226.629 70.1676 226.585 70.1676 226.497V226.132H69.9474V226.077H70.2303V226.494C70.2303 226.557 70.2154 226.605 70.1856 226.637C70.1564 226.668 70.1128 226.684 70.0549 226.684ZM70.5666 226.223C70.6256 226.223 70.6709 226.238 70.7025 226.268C70.734 226.297 70.7498 226.341 70.7498 226.399V226.679H70.6913V226.608C70.6775 226.632 70.6572 226.65 70.6302 226.663C70.6039 226.677 70.5723 226.683 70.5356 226.683C70.4852 226.683 70.445 226.671 70.4152 226.647C70.3854 226.623 70.3705 226.591 70.3705 226.552C70.3705 226.513 70.3843 226.482 70.4118 226.459C70.4399 226.435 70.4843 226.424 70.5451 226.424H70.6887V226.396C70.6887 226.357 70.6778 226.328 70.656 226.307C70.6342 226.287 70.6024 226.276 70.5606 226.276C70.5319 226.276 70.5044 226.281 70.478 226.291C70.4516 226.3 70.429 226.313 70.4101 226.33L70.3825 226.284C70.4055 226.265 70.433 226.25 70.4651 226.239C70.4972 226.229 70.531 226.223 70.5666 226.223ZM70.5451 226.635C70.5795 226.635 70.609 226.627 70.6337 226.612C70.6583 226.596 70.6767 226.573 70.6887 226.543V226.469H70.5468C70.4694 226.469 70.4307 226.496 70.4307 226.55C70.4307 226.576 70.4407 226.597 70.4608 226.613C70.4809 226.628 70.509 226.635 70.5451 226.635ZM71.1461 226.223C71.2028 226.223 71.2479 226.24 71.2811 226.273C71.3149 226.306 71.3318 226.354 71.3318 226.417V226.679H71.2708V226.423C71.2708 226.376 71.259 226.34 71.2355 226.315C71.212 226.291 71.1785 226.278 71.1349 226.278C71.0862 226.278 71.0475 226.293 71.0188 226.322C70.9907 226.351 70.9767 226.391 70.9767 226.442V226.679H70.9156V226.227H70.9741V226.31C70.9907 226.282 71.0136 226.261 71.0429 226.246C71.0727 226.231 71.1071 226.223 71.1461 226.223Z" fill="#6E6B7B"/>
<path d="M101.714 226.132V226.368H102.025V226.424H101.714V226.679H101.65V226.077H102.063V226.132H101.714ZM102.56 226.472H102.182C102.185 226.519 102.203 226.557 102.236 226.586C102.269 226.615 102.31 226.629 102.36 226.629C102.388 226.629 102.414 226.624 102.437 226.614C102.461 226.604 102.481 226.589 102.498 226.57L102.533 226.609C102.513 226.633 102.487 226.652 102.457 226.664C102.427 226.677 102.394 226.683 102.358 226.683C102.312 226.683 102.27 226.674 102.234 226.654C102.199 226.634 102.171 226.606 102.151 226.571C102.131 226.536 102.121 226.497 102.121 226.453C102.121 226.409 102.13 226.369 102.149 226.334C102.169 226.299 102.195 226.272 102.228 226.252C102.262 226.233 102.3 226.223 102.342 226.223C102.384 226.223 102.421 226.233 102.454 226.252C102.488 226.272 102.514 226.299 102.533 226.334C102.552 226.368 102.561 226.408 102.561 226.453L102.56 226.472ZM102.342 226.276C102.298 226.276 102.262 226.29 102.232 226.318C102.202 226.345 102.186 226.381 102.182 226.426H102.503C102.499 226.381 102.482 226.345 102.452 226.318C102.423 226.29 102.386 226.276 102.342 226.276ZM102.918 226.223C102.961 226.223 102.999 226.233 103.034 226.252C103.068 226.271 103.095 226.298 103.114 226.333C103.134 226.368 103.144 226.408 103.144 226.453C103.144 226.497 103.134 226.537 103.114 226.572C103.095 226.607 103.068 226.635 103.034 226.654C102.999 226.674 102.961 226.683 102.918 226.683C102.881 226.683 102.846 226.675 102.816 226.659C102.786 226.643 102.762 226.62 102.744 226.59V226.679H102.685V226.041H102.746V226.313C102.765 226.283 102.789 226.261 102.819 226.246C102.848 226.231 102.882 226.223 102.918 226.223ZM102.914 226.629C102.946 226.629 102.974 226.622 103 226.608C103.026 226.593 103.046 226.572 103.06 226.545C103.075 226.518 103.083 226.487 103.083 226.453C103.083 226.418 103.075 226.388 103.06 226.361C103.046 226.334 103.026 226.313 103 226.299C102.974 226.284 102.946 226.276 102.914 226.276C102.882 226.276 102.853 226.284 102.827 226.299C102.802 226.313 102.782 226.334 102.767 226.361C102.753 226.388 102.746 226.418 102.746 226.453C102.746 226.487 102.753 226.518 102.767 226.545C102.782 226.572 102.802 226.593 102.827 226.608C102.853 226.622 102.882 226.629 102.914 226.629Z" fill="#6E6B7B"/>
<path d="M133.935 226.077V226.679H133.874V226.197L133.638 226.602H133.607L133.371 226.2V226.679H133.31V226.077H133.362L133.624 226.523L133.883 226.077H133.935ZM134.277 226.223C134.336 226.223 134.381 226.238 134.412 226.268C134.444 226.297 134.46 226.341 134.46 226.399V226.679H134.401V226.608C134.387 226.632 134.367 226.65 134.34 226.663C134.314 226.677 134.282 226.683 134.246 226.683C134.195 226.683 134.155 226.671 134.125 226.647C134.095 226.623 134.08 226.591 134.08 226.552C134.08 226.513 134.094 226.482 134.122 226.459C134.15 226.435 134.194 226.424 134.255 226.424H134.399V226.396C134.399 226.357 134.388 226.328 134.366 226.307C134.344 226.287 134.312 226.276 134.271 226.276C134.242 226.276 134.214 226.281 134.188 226.291C134.162 226.3 134.139 226.313 134.12 226.33L134.093 226.284C134.115 226.265 134.143 226.25 134.175 226.239C134.207 226.229 134.241 226.223 134.277 226.223ZM134.255 226.635C134.289 226.635 134.319 226.627 134.344 226.612C134.368 226.596 134.387 226.573 134.399 226.543V226.469H134.257C134.179 226.469 134.141 226.496 134.141 226.55C134.141 226.576 134.151 226.597 134.171 226.613C134.191 226.628 134.219 226.635 134.255 226.635ZM134.684 226.315C134.698 226.285 134.72 226.262 134.748 226.246C134.776 226.231 134.812 226.223 134.853 226.223V226.282L134.839 226.282C134.791 226.282 134.754 226.296 134.727 226.325C134.7 226.355 134.687 226.396 134.687 226.448V226.679H134.626V226.227H134.684V226.315Z" fill="#6E6B7B"/>
<path d="M165.347 226.518H165.012L164.939 226.679H164.873L165.148 226.077H165.211L165.486 226.679H165.419L165.347 226.518ZM165.324 226.467L165.179 226.143L165.035 226.467H165.324ZM165.806 226.223C165.849 226.223 165.887 226.233 165.921 226.252C165.956 226.271 165.983 226.298 166.002 226.333C166.022 226.368 166.032 226.408 166.032 226.453C166.032 226.498 166.022 226.538 166.002 226.573C165.983 226.608 165.956 226.635 165.921 226.655C165.888 226.674 165.849 226.683 165.806 226.683C165.769 226.683 165.736 226.676 165.706 226.661C165.677 226.645 165.653 226.623 165.634 226.594V226.846H165.573V226.227H165.632V226.316C165.65 226.286 165.674 226.263 165.704 226.247C165.734 226.231 165.768 226.223 165.806 226.223ZM165.802 226.629C165.833 226.629 165.862 226.622 165.888 226.608C165.914 226.593 165.934 226.572 165.948 226.545C165.963 226.518 165.97 226.487 165.97 226.453C165.97 226.418 165.963 226.388 165.948 226.362C165.934 226.335 165.914 226.314 165.888 226.299C165.862 226.284 165.833 226.276 165.802 226.276C165.77 226.276 165.741 226.284 165.715 226.299C165.69 226.314 165.67 226.335 165.655 226.362C165.64 226.388 165.633 226.418 165.633 226.453C165.633 226.487 165.64 226.518 165.655 226.545C165.67 226.572 165.69 226.593 165.715 226.608C165.741 226.622 165.77 226.629 165.802 226.629ZM166.214 226.315C166.229 226.285 166.25 226.262 166.278 226.246C166.307 226.231 166.342 226.223 166.384 226.223V226.282L166.369 226.282C166.322 226.282 166.284 226.296 166.257 226.325C166.231 226.355 166.217 226.396 166.217 226.448V226.679H166.156V226.227H166.214V226.315Z" fill="#6E6B7B"/>
<path d="M197.255 226.077V226.679H197.193V226.197L196.957 226.602H196.927L196.69 226.2V226.679H196.629V226.077H196.682L196.943 226.523L197.202 226.077H197.255ZM197.596 226.223C197.655 226.223 197.7 226.238 197.732 226.268C197.763 226.297 197.779 226.341 197.779 226.399V226.679H197.721V226.608C197.707 226.632 197.687 226.65 197.66 226.663C197.633 226.677 197.602 226.683 197.565 226.683C197.515 226.683 197.474 226.671 197.445 226.647C197.415 226.623 197.4 226.591 197.4 226.552C197.4 226.513 197.414 226.482 197.441 226.459C197.469 226.435 197.514 226.424 197.574 226.424H197.718V226.396C197.718 226.357 197.707 226.328 197.685 226.307C197.664 226.287 197.632 226.276 197.59 226.276C197.561 226.276 197.534 226.281 197.507 226.291C197.481 226.3 197.458 226.313 197.439 226.33L197.412 226.284C197.435 226.265 197.462 226.25 197.495 226.239C197.527 226.229 197.56 226.223 197.596 226.223ZM197.574 226.635C197.609 226.635 197.638 226.627 197.663 226.612C197.688 226.596 197.706 226.573 197.718 226.543V226.469H197.576C197.499 226.469 197.46 226.496 197.46 226.55C197.46 226.576 197.47 226.597 197.49 226.613C197.51 226.628 197.538 226.635 197.574 226.635ZM198.317 226.227L198.091 226.733C198.072 226.776 198.051 226.806 198.027 226.823C198.003 226.841 197.974 226.85 197.94 226.85C197.918 226.85 197.898 226.847 197.879 226.84C197.86 226.833 197.844 226.823 197.83 226.809L197.858 226.763C197.881 226.786 197.909 226.798 197.941 226.798C197.962 226.798 197.979 226.792 197.993 226.78C198.008 226.769 198.022 226.749 198.035 226.722L198.054 226.678L197.852 226.227H197.916L198.086 226.611L198.257 226.227H198.317Z" fill="#6E6B7B"/>
<path d="M228.354 226.684C228.319 226.684 228.287 226.677 228.258 226.662C228.229 226.647 228.205 226.626 228.187 226.598L228.225 226.555C228.258 226.604 228.301 226.629 228.354 226.629C228.429 226.629 228.466 226.585 228.466 226.497V226.132H228.246V226.077H228.529V226.494C228.529 226.557 228.514 226.605 228.484 226.637C228.455 226.668 228.411 226.684 228.354 226.684ZM229.115 226.227V226.679H229.056V226.596C229.04 226.624 229.018 226.645 228.99 226.661C228.962 226.676 228.93 226.683 228.894 226.683C228.835 226.683 228.788 226.667 228.753 226.634C228.72 226.601 228.703 226.553 228.703 226.489V226.227H228.764V226.483C228.764 226.53 228.775 226.567 228.799 226.591C228.822 226.616 228.856 226.628 228.9 226.628C228.947 226.628 228.985 226.614 229.012 226.585C229.04 226.556 229.054 226.516 229.054 226.464V226.227H229.115ZM229.516 226.223C229.573 226.223 229.618 226.24 229.651 226.273C229.685 226.306 229.702 226.354 229.702 226.417V226.679H229.641V226.423C229.641 226.376 229.629 226.34 229.606 226.315C229.582 226.291 229.548 226.278 229.505 226.278C229.456 226.278 229.417 226.293 229.389 226.322C229.361 226.351 229.347 226.391 229.347 226.442V226.679H229.286V226.227H229.344V226.31C229.361 226.282 229.384 226.261 229.413 226.246C229.443 226.231 229.477 226.223 229.516 226.223Z" fill="#6E6B7B"/>
<path d="M260.013 226.684C259.979 226.684 259.947 226.677 259.918 226.662C259.889 226.647 259.865 226.626 259.846 226.598L259.884 226.555C259.918 226.604 259.961 226.629 260.014 226.629C260.089 226.629 260.126 226.585 260.126 226.497V226.132H259.906V226.077H260.189V226.494C260.189 226.557 260.174 226.605 260.144 226.637C260.115 226.668 260.071 226.684 260.013 226.684ZM260.774 226.227V226.679H260.716V226.596C260.7 226.624 260.678 226.645 260.65 226.661C260.622 226.676 260.589 226.683 260.553 226.683C260.494 226.683 260.448 226.667 260.413 226.634C260.379 226.601 260.362 226.553 260.362 226.489V226.227H260.423V226.483C260.423 226.53 260.435 226.567 260.459 226.591C260.482 226.616 260.516 226.628 260.559 226.628C260.607 226.628 260.644 226.614 260.672 226.585C260.7 226.556 260.713 226.516 260.713 226.464V226.227H260.774ZM260.945 226.041H261.006V226.679H260.945V226.041Z" fill="#6E6B7B"/>
<path d="M291.986 226.518H291.651L291.578 226.679H291.512L291.787 226.077H291.85L292.125 226.679H292.058L291.986 226.518ZM291.963 226.467L291.818 226.143L291.674 226.467H291.963ZM292.611 226.227V226.679H292.553V226.596C292.537 226.624 292.515 226.645 292.487 226.661C292.458 226.676 292.426 226.683 292.39 226.683C292.331 226.683 292.284 226.667 292.25 226.634C292.216 226.601 292.199 226.553 292.199 226.489V226.227H292.26V226.483C292.26 226.53 292.272 226.567 292.296 226.591C292.319 226.616 292.353 226.628 292.396 226.628C292.444 226.628 292.481 226.614 292.509 226.585C292.536 226.556 292.55 226.516 292.55 226.464V226.227H292.611ZM293.201 226.227V226.624C293.201 226.701 293.182 226.758 293.144 226.794C293.107 226.831 293.051 226.85 292.975 226.85C292.933 226.85 292.893 226.844 292.855 226.831C292.818 226.819 292.788 226.802 292.764 226.78L292.795 226.734C292.817 226.753 292.843 226.769 292.874 226.78C292.906 226.79 292.939 226.796 292.973 226.796C293.031 226.796 293.073 226.782 293.1 226.755C293.127 226.729 293.14 226.688 293.14 226.632V226.574C293.121 226.603 293.096 226.624 293.065 226.639C293.035 226.654 293.001 226.662 292.964 226.662C292.921 226.662 292.883 226.653 292.848 226.634C292.813 226.615 292.786 226.589 292.766 226.556C292.746 226.522 292.737 226.484 292.737 226.442C292.737 226.399 292.746 226.361 292.766 226.328C292.786 226.295 292.813 226.269 292.848 226.251C292.882 226.232 292.921 226.223 292.964 226.223C293.002 226.223 293.037 226.231 293.068 226.246C293.099 226.262 293.124 226.284 293.143 226.313V226.227H293.201ZM292.97 226.608C293.002 226.608 293.032 226.601 293.058 226.587C293.085 226.573 293.105 226.553 293.119 226.528C293.134 226.502 293.142 226.474 293.142 226.442C293.142 226.409 293.134 226.381 293.119 226.356C293.105 226.331 293.085 226.312 293.058 226.298C293.033 226.284 293.003 226.276 292.97 226.276C292.937 226.276 292.908 226.283 292.881 226.297C292.855 226.311 292.835 226.33 292.82 226.356C292.806 226.381 292.799 226.409 292.799 226.442C292.799 226.474 292.806 226.502 292.82 226.528C292.835 226.553 292.855 226.573 292.881 226.587C292.908 226.601 292.937 226.608 292.97 226.608Z" fill="#6E6B7B"/>
<path d="M323.434 226.684C323.389 226.684 323.346 226.677 323.305 226.663C323.264 226.648 323.233 226.629 323.211 226.606L323.235 226.557C323.257 226.579 323.286 226.596 323.322 226.61C323.358 226.623 323.396 226.63 323.434 226.63C323.488 226.63 323.528 226.62 323.555 226.601C323.582 226.581 323.596 226.555 323.596 226.523C323.596 226.499 323.588 226.48 323.573 226.466C323.559 226.451 323.541 226.44 323.52 226.433C323.499 226.425 323.469 226.416 323.432 226.407C323.386 226.396 323.35 226.385 323.323 226.375C323.296 226.364 323.273 226.347 323.254 226.325C323.235 226.304 323.225 226.274 323.225 226.237C323.225 226.207 323.233 226.179 323.249 226.154C323.265 226.129 323.29 226.109 323.323 226.094C323.356 226.079 323.398 226.072 323.447 226.072C323.481 226.072 323.515 226.077 323.548 226.086C323.581 226.096 323.61 226.108 323.634 226.125L323.612 226.176C323.587 226.159 323.56 226.147 323.531 226.139C323.503 226.13 323.475 226.126 323.447 226.126C323.394 226.126 323.354 226.136 323.328 226.157C323.301 226.177 323.288 226.203 323.288 226.235C323.288 226.259 323.295 226.279 323.309 226.294C323.324 226.308 323.343 226.319 323.364 226.327C323.387 226.335 323.417 226.343 323.454 226.352C323.498 226.363 323.534 226.374 323.561 226.385C323.588 226.395 323.611 226.411 323.63 226.433C323.649 226.454 323.659 226.483 323.659 226.52C323.659 226.55 323.65 226.578 323.634 226.603C323.618 226.628 323.593 226.648 323.559 226.663C323.525 226.677 323.483 226.684 323.434 226.684ZM324.178 226.472H323.8C323.803 226.519 323.821 226.557 323.854 226.586C323.887 226.615 323.928 226.629 323.978 226.629C324.006 226.629 324.032 226.624 324.055 226.614C324.079 226.604 324.099 226.589 324.116 226.57L324.151 226.609C324.131 226.633 324.105 226.652 324.075 226.664C324.045 226.677 324.012 226.683 323.976 226.683C323.93 226.683 323.888 226.674 323.852 226.654C323.817 226.634 323.789 226.606 323.769 226.571C323.749 226.536 323.739 226.497 323.739 226.453C323.739 226.409 323.748 226.369 323.767 226.334C323.787 226.299 323.813 226.272 323.846 226.252C323.88 226.233 323.918 226.223 323.96 226.223C324.002 226.223 324.039 226.233 324.072 226.252C324.106 226.272 324.132 226.299 324.151 226.334C324.17 226.368 324.179 226.408 324.179 226.453L324.178 226.472ZM323.96 226.276C323.916 226.276 323.88 226.29 323.85 226.318C323.82 226.345 323.804 226.381 323.8 226.426H324.121C324.117 226.381 324.1 226.345 324.07 226.318C324.041 226.29 324.004 226.276 323.96 226.276ZM324.536 226.223C324.579 226.223 324.617 226.233 324.652 226.252C324.686 226.271 324.713 226.298 324.733 226.333C324.752 226.368 324.762 226.408 324.762 226.453C324.762 226.498 324.752 226.538 324.733 226.573C324.713 226.608 324.686 226.635 324.652 226.655C324.618 226.674 324.579 226.683 324.536 226.683C324.5 226.683 324.467 226.676 324.437 226.661C324.407 226.645 324.383 226.623 324.364 226.594V226.846H324.303V226.227H324.362V226.316C324.38 226.286 324.404 226.263 324.434 226.247C324.465 226.231 324.499 226.223 324.536 226.223ZM324.532 226.629C324.564 226.629 324.592 226.622 324.618 226.608C324.644 226.593 324.664 226.572 324.678 226.545C324.693 226.518 324.701 226.487 324.701 226.453C324.701 226.418 324.693 226.388 324.678 226.362C324.664 226.335 324.644 226.314 324.618 226.299C324.592 226.284 324.564 226.276 324.532 226.276C324.5 226.276 324.471 226.284 324.445 226.299C324.42 226.314 324.4 226.335 324.385 226.362C324.371 226.388 324.364 226.418 324.364 226.453C324.364 226.487 324.371 226.518 324.385 226.545C324.4 226.572 324.42 226.593 324.445 226.608C324.471 226.622 324.5 226.629 324.532 226.629Z" fill="#6E6B7B"/>
<path d="M55.0625 201.539H340" stroke="white"/>
<path d="M55.0625 11V201.539" stroke="white"/>
<path d="M68.2013 124.923V89.8765C69.9953 88.0825 71.7894 88.0825 73.5834 89.8765V124.923H68.2013Z" fill="#7367F0" fill-opacity="0.85"/>
<path d="M99.861 124.923V58.4642C101.655 56.6701 103.449 56.6701 105.243 58.4642V124.923H99.861Z" fill="#7367F0" fill-opacity="0.85"/>
<path d="M131.521 124.923V17.4748C133.315 15.6808 135.109 15.6808 136.903 17.4748V124.923H131.521Z" fill="#7367F0" fill-opacity="0.85"/>
<path d="M163.18 124.923V28.201C164.975 26.407 166.769 26.407 168.563 28.201V124.923H163.18Z" fill="#7367F0" fill-opacity="0.85"/>
<path d="M194.84 124.923V86.0457C196.634 84.2517 198.428 84.2517 200.222 86.0457V124.923H194.84Z" fill="#7367F0" fill-opacity="0.85"/>
<path d="M226.5 124.923V102.135C228.294 100.341 230.088 100.341 231.882 102.135V124.923H226.5Z" fill="#7367F0" fill-opacity="0.85"/>
<path d="M258.16 124.923V61.9118C259.954 60.1178 261.748 60.1178 263.542 61.9118V124.923H258.16Z" fill="#7367F0" fill-opacity="0.85"/>
<path d="M289.819 124.923V42.758C291.613 40.964 293.407 40.964 295.201 42.758V124.923H289.819Z" fill="#7367F0" fill-opacity="0.85"/>
<path d="M321.479 124.923V98.6873C323.273 96.8933 325.067 96.8933 326.861 98.6873V124.923H321.479Z" fill="#7367F0" fill-opacity="0.85"/>
<path d="M68.2013 124.923V179.124C69.9953 180.918 71.7894 180.918 73.5834 179.124V124.923H68.2013Z" fill="#FF9F43" fill-opacity="0.85"/>
<path d="M99.861 124.923V154.224C101.655 156.018 103.449 156.018 105.243 154.224V124.923H99.861Z" fill="#FF9F43" fill-opacity="0.85"/>
<path d="M131.521 124.923V146.563C133.315 148.357 135.109 148.357 136.903 146.563V124.923H131.521Z" fill="#FF9F43" fill-opacity="0.85"/>
<path d="M163.18 124.923V192.532C164.975 194.326 166.769 194.326 168.563 192.532V124.923H163.18Z" fill="#FF9F43" fill-opacity="0.85"/>
<path d="M194.84 124.923V161.886C196.634 163.68 198.428 163.68 200.222 161.886V124.923H194.84Z" fill="#FF9F43" fill-opacity="0.85"/>
<path d="M226.5 124.923V146.563C228.294 148.357 230.088 148.357 231.882 146.563V124.923H226.5Z" fill="#FF9F43" fill-opacity="0.85"/>
<path d="M258.16 124.923V156.14C259.954 157.934 261.748 157.934 263.542 156.14V124.923H258.16Z" fill="#FF9F43" fill-opacity="0.85"/>
<path d="M289.819 124.923V152.309C291.613 154.103 293.407 154.103 295.201 152.309V124.923H289.819Z" fill="#FF9F43" fill-opacity="0.85"/>
<path d="M321.479 124.923V161.886C323.273 163.68 325.067 163.68 326.861 161.886V124.923H321.479Z" fill="#FF9F43" fill-opacity="0.85"/>
<path d="M55.0625 10H340" stroke="white"/>
<path d="M43.3119 11.296C43.375 11.2995 43.4228 11.3167 43.4555 11.3476C43.4888 11.378 43.5054 11.4178 43.5054 11.4672C43.5054 11.5016 43.4971 11.5322 43.4805 11.5592C43.4638 11.5855 43.4392 11.6065 43.4065 11.622C43.3738 11.6374 43.334 11.6452 43.287 11.6452C43.2434 11.6452 43.2021 11.6383 43.1631 11.6245C43.1247 11.6102 43.0937 11.5913 43.0702 11.5678L43.1003 11.5188C43.1204 11.5394 43.1471 11.5563 43.1803 11.5695C43.2136 11.5821 43.2491 11.5884 43.287 11.5884C43.3363 11.5884 43.3744 11.5778 43.4013 11.5566C43.4283 11.5348 43.4418 11.505 43.4418 11.4672C43.4418 11.4299 43.4283 11.4006 43.4013 11.3794C43.3744 11.3582 43.3337 11.3476 43.2792 11.3476H43.2362V11.302L43.4031 11.0931H43.0952V11.038H43.4822V11.0819L43.3119 11.296ZM43.8326 11.6452C43.7861 11.6452 43.7446 11.6328 43.7079 11.6082C43.6718 11.5835 43.6434 11.5483 43.6227 11.5024C43.6027 11.456 43.5926 11.4015 43.5926 11.339C43.5926 11.2765 43.6027 11.2223 43.6227 11.1765C43.6434 11.13 43.6718 11.0945 43.7079 11.0698C43.7446 11.0452 43.7861 11.0329 43.8326 11.0329C43.879 11.0329 43.9203 11.0452 43.9564 11.0698C43.9931 11.0945 44.0218 11.13 44.0424 11.1765C44.0631 11.2223 44.0734 11.2765 44.0734 11.339C44.0734 11.4015 44.0631 11.456 44.0424 11.5024C44.0218 11.5483 43.9931 11.5835 43.9564 11.6082C43.9203 11.6328 43.879 11.6452 43.8326 11.6452ZM43.8326 11.5884C43.8676 11.5884 43.8982 11.5787 43.9246 11.5592C43.9516 11.5397 43.9725 11.5113 43.9874 11.474C44.0023 11.4368 44.0097 11.3918 44.0097 11.339C44.0097 11.2863 44.0023 11.2413 43.9874 11.204C43.9725 11.1667 43.9516 11.1383 43.9246 11.1189C43.8982 11.0994 43.8676 11.0896 43.8326 11.0896C43.7976 11.0896 43.7667 11.0994 43.7397 11.1189C43.7133 11.1383 43.6927 11.1667 43.6778 11.204C43.6629 11.2413 43.6554 11.2863 43.6554 11.339C43.6554 11.3918 43.6629 11.4368 43.6778 11.474C43.6927 11.5113 43.7133 11.5397 43.7397 11.5592C43.7667 11.5787 43.7976 11.5884 43.8326 11.5884ZM44.402 11.6452C44.3556 11.6452 44.314 11.6328 44.2773 11.6082C44.2412 11.5835 44.2128 11.5483 44.1922 11.5024C44.1721 11.456 44.1621 11.4015 44.1621 11.339C44.1621 11.2765 44.1721 11.2223 44.1922 11.1765C44.2128 11.13 44.2412 11.0945 44.2773 11.0698C44.314 11.0452 44.3556 11.0329 44.402 11.0329C44.4484 11.0329 44.4897 11.0452 44.5258 11.0698C44.5625 11.0945 44.5912 11.13 44.6118 11.1765C44.6325 11.2223 44.6428 11.2765 44.6428 11.339C44.6428 11.4015 44.6325 11.456 44.6118 11.5024C44.5912 11.5483 44.5625 11.5835 44.5258 11.6082C44.4897 11.6328 44.4484 11.6452 44.402 11.6452ZM44.402 11.5884C44.437 11.5884 44.4677 11.5787 44.494 11.5592C44.521 11.5397 44.5419 11.5113 44.5568 11.474C44.5717 11.4368 44.5792 11.3918 44.5792 11.339C44.5792 11.2863 44.5717 11.2413 44.5568 11.204C44.5419 11.1667 44.521 11.1383 44.494 11.1189C44.4677 11.0994 44.437 11.0896 44.402 11.0896C44.367 11.0896 44.3361 11.0994 44.3091 11.1189C44.2828 11.1383 44.2621 11.1667 44.2472 11.204C44.2323 11.2413 44.2248 11.2863 44.2248 11.339C44.2248 11.3918 44.2323 11.4368 44.2472 11.474C44.2621 11.5113 44.2828 11.5397 44.3091 11.5592C44.3361 11.5787 44.367 11.5884 44.402 11.5884Z" fill="#6E6B7B"/>
<path d="M43.5183 49.8927V49.9478H43.096V49.9039L43.3463 49.6588C43.3778 49.6278 43.399 49.6012 43.4099 49.5788C43.4214 49.5559 43.4271 49.5329 43.4271 49.51C43.4271 49.4745 43.4148 49.4469 43.3902 49.4275C43.3661 49.4074 43.3314 49.3974 43.2861 49.3974C43.2156 49.3974 43.1608 49.4197 43.1218 49.4644L43.078 49.4266C43.1015 49.3991 43.1313 49.3779 43.1674 49.363C43.2041 49.348 43.2454 49.3406 43.2913 49.3406C43.3526 49.3406 43.4011 49.3552 43.4366 49.3845C43.4727 49.4131 43.4908 49.4527 43.4908 49.5031C43.4908 49.5341 43.4839 49.5639 43.4701 49.5926C43.4564 49.6212 43.4303 49.6542 43.3919 49.6915L43.1872 49.8927H43.5183ZM43.8326 49.9529C43.7861 49.9529 43.7446 49.9406 43.7079 49.9159C43.6718 49.8913 43.6434 49.856 43.6227 49.8102C43.6027 49.7637 43.5926 49.7092 43.5926 49.6468C43.5926 49.5843 43.6027 49.5301 43.6227 49.4842C43.6434 49.4378 43.6718 49.4022 43.7079 49.3776C43.7446 49.3529 43.7861 49.3406 43.8326 49.3406C43.879 49.3406 43.9203 49.3529 43.9564 49.3776C43.9931 49.4022 44.0218 49.4378 44.0424 49.4842C44.0631 49.5301 44.0734 49.5843 44.0734 49.6468C44.0734 49.7092 44.0631 49.7637 44.0424 49.8102C44.0218 49.856 43.9931 49.8913 43.9564 49.9159C43.9203 49.9406 43.879 49.9529 43.8326 49.9529ZM43.8326 49.8962C43.8676 49.8962 43.8982 49.8864 43.9246 49.8669C43.9516 49.8474 43.9725 49.819 43.9874 49.7818C44.0023 49.7445 44.0097 49.6995 44.0097 49.6468C44.0097 49.594 44.0023 49.549 43.9874 49.5117C43.9725 49.4745 43.9516 49.4461 43.9246 49.4266C43.8982 49.4071 43.8676 49.3974 43.8326 49.3974C43.7976 49.3974 43.7667 49.4071 43.7397 49.4266C43.7133 49.4461 43.6927 49.4745 43.6778 49.5117C43.6629 49.549 43.6554 49.594 43.6554 49.6468C43.6554 49.6995 43.6629 49.7445 43.6778 49.7818C43.6927 49.819 43.7133 49.8474 43.7397 49.8669C43.7667 49.8864 43.7976 49.8962 43.8326 49.8962ZM44.402 49.9529C44.3556 49.9529 44.314 49.9406 44.2773 49.9159C44.2412 49.8913 44.2128 49.856 44.1922 49.8102C44.1721 49.7637 44.1621 49.7092 44.1621 49.6468C44.1621 49.5843 44.1721 49.5301 44.1922 49.4842C44.2128 49.4378 44.2412 49.4022 44.2773 49.3776C44.314 49.3529 44.3556 49.3406 44.402 49.3406C44.4484 49.3406 44.4897 49.3529 44.5258 49.3776C44.5625 49.4022 44.5912 49.4378 44.6118 49.4842C44.6325 49.5301 44.6428 49.5843 44.6428 49.6468C44.6428 49.7092 44.6325 49.7637 44.6118 49.8102C44.5912 49.856 44.5625 49.8913 44.5258 49.9159C44.4897 49.9406 44.4484 49.9529 44.402 49.9529ZM44.402 49.8962C44.437 49.8962 44.4677 49.8864 44.494 49.8669C44.521 49.8474 44.5419 49.819 44.5568 49.7818C44.5717 49.7445 44.5792 49.6995 44.5792 49.6468C44.5792 49.594 44.5717 49.549 44.5568 49.5117C44.5419 49.4745 44.521 49.4461 44.494 49.4266C44.4677 49.4071 44.437 49.3974 44.402 49.3974C44.367 49.3974 44.3361 49.4071 44.3091 49.4266C44.2828 49.4461 44.2621 49.4745 44.2472 49.5117C44.2323 49.549 44.2248 49.594 44.2248 49.6468C44.2248 49.6995 44.2323 49.7445 44.2472 49.7818C44.2621 49.819 44.2828 49.8474 44.3091 49.8669C44.3361 49.8864 44.367 49.8962 44.402 49.8962Z" fill="#6E6B7B"/>
<path d="M43.2741 87.6536V88.2556H43.2121V87.7087H43.0702V87.6536H43.2741ZM43.6579 88.2608C43.6115 88.2608 43.5699 88.2484 43.5332 88.2238C43.4971 88.1991 43.4687 88.1639 43.4481 88.118C43.428 88.0716 43.418 88.0171 43.418 87.9546C43.418 87.8921 43.428 87.8379 43.4481 87.7921C43.4687 87.7456 43.4971 87.7101 43.5332 87.6854C43.5699 87.6608 43.6115 87.6485 43.6579 87.6485C43.7043 87.6485 43.7456 87.6608 43.7817 87.6854C43.8184 87.7101 43.8471 87.7456 43.8677 87.7921C43.8884 87.8379 43.8987 87.8921 43.8987 87.9546C43.8987 88.0171 43.8884 88.0716 43.8677 88.118C43.8471 88.1639 43.8184 88.1991 43.7817 88.2238C43.7456 88.2484 43.7043 88.2608 43.6579 88.2608ZM43.6579 88.204C43.6929 88.204 43.7235 88.1943 43.7499 88.1748C43.7769 88.1553 43.7978 88.1269 43.8127 88.0896C43.8276 88.0524 43.8351 88.0074 43.8351 87.9546C43.8351 87.9019 43.8276 87.8569 43.8127 87.8196C43.7978 87.7823 43.7769 87.7539 43.7499 87.7345C43.7235 87.715 43.6929 87.7052 43.6579 87.7052C43.6229 87.7052 43.592 87.715 43.565 87.7345C43.5386 87.7539 43.518 87.7823 43.5031 87.8196C43.4882 87.8569 43.4807 87.9019 43.4807 87.9546C43.4807 88.0074 43.4882 88.0524 43.5031 88.0896C43.518 88.1269 43.5386 88.1553 43.565 88.1748C43.592 88.1943 43.6229 88.204 43.6579 88.204ZM44.2273 88.2608C44.1809 88.2608 44.1393 88.2484 44.1026 88.2238C44.0665 88.1991 44.0381 88.1639 44.0175 88.118C43.9974 88.0716 43.9874 88.0171 43.9874 87.9546C43.9874 87.8921 43.9974 87.8379 44.0175 87.7921C44.0381 87.7456 44.0665 87.7101 44.1026 87.6854C44.1393 87.6608 44.1809 87.6485 44.2273 87.6485C44.2738 87.6485 44.315 87.6608 44.3512 87.6854C44.3878 87.7101 44.4165 87.7456 44.4372 87.7921C44.4578 87.8379 44.4681 87.8921 44.4681 87.9546C44.4681 88.0171 44.4578 88.0716 44.4372 88.118C44.4165 88.1639 44.3878 88.1991 44.3512 88.2238C44.315 88.2484 44.2738 88.2608 44.2273 88.2608ZM44.2273 88.204C44.2623 88.204 44.293 88.1943 44.3193 88.1748C44.3463 88.1553 44.3672 88.1269 44.3821 88.0896C44.397 88.0524 44.4045 88.0074 44.4045 87.9546C44.4045 87.9019 44.397 87.8569 44.3821 87.8196C44.3672 87.7823 44.3463 87.7539 44.3193 87.7345C44.293 87.715 44.2623 87.7052 44.2273 87.7052C44.1923 87.7052 44.1614 87.715 44.1344 87.7345C44.1081 87.7539 44.0874 87.7823 44.0725 87.8196C44.0576 87.8569 44.0502 87.9019 44.0502 87.9546C44.0502 88.0074 44.0576 88.0524 44.0725 88.0896C44.0874 88.1269 44.1081 88.1553 44.1344 88.1748C44.1614 88.1943 44.1923 88.204 44.2273 88.204Z" fill="#6E6B7B"/>
<path d="M44.3472 126.569C44.3007 126.569 44.2592 126.556 44.2225 126.532C44.1863 126.507 44.158 126.472 44.1373 126.426C44.1173 126.379 44.1072 126.325 44.1072 126.262C44.1072 126.2 44.1173 126.146 44.1373 126.1C44.158 126.053 44.1863 126.018 44.2225 125.993C44.2592 125.969 44.3007 125.956 44.3472 125.956C44.3936 125.956 44.4349 125.969 44.471 125.993C44.5077 126.018 44.5364 126.053 44.557 126.1C44.5776 126.146 44.588 126.2 44.588 126.262C44.588 126.325 44.5776 126.379 44.557 126.426C44.5364 126.472 44.5077 126.507 44.471 126.532C44.4349 126.556 44.3936 126.569 44.3472 126.569ZM44.3472 126.512C44.3821 126.512 44.4128 126.502 44.4392 126.483C44.4661 126.463 44.4871 126.435 44.502 126.397C44.5169 126.36 44.5243 126.315 44.5243 126.262C44.5243 126.21 44.5169 126.165 44.502 126.127C44.4871 126.09 44.4661 126.062 44.4392 126.042C44.4128 126.023 44.3821 126.013 44.3472 126.013C44.3122 126.013 44.2812 126.023 44.2543 126.042C44.2279 126.062 44.2073 126.09 44.1924 126.127C44.1775 126.165 44.17 126.21 44.17 126.262C44.17 126.315 44.1775 126.36 44.1924 126.397C44.2073 126.435 44.2279 126.463 44.2543 126.483C44.2812 126.502 44.3122 126.512 44.3472 126.512Z" fill="#6E6B7B"/>
<path d="M43.1141 164.611H43.3394V164.665H43.1141V164.611ZM43.5882 164.269V164.871H43.5262V164.324H43.3843V164.269H43.5882ZM43.972 164.876C43.9256 164.876 43.884 164.864 43.8473 164.839C43.8112 164.815 43.7828 164.779 43.7622 164.734C43.7421 164.687 43.7321 164.633 43.7321 164.57C43.7321 164.508 43.7421 164.454 43.7622 164.408C43.7828 164.361 43.8112 164.326 43.8473 164.301C43.884 164.276 43.9256 164.264 43.972 164.264C44.0184 164.264 44.0597 164.276 44.0958 164.301C44.1325 164.326 44.1612 164.361 44.1818 164.408C44.2025 164.454 44.2128 164.508 44.2128 164.57C44.2128 164.633 44.2025 164.687 44.1818 164.734C44.1612 164.779 44.1325 164.815 44.0958 164.839C44.0597 164.864 44.0184 164.876 43.972 164.876ZM43.972 164.82C44.007 164.82 44.0377 164.81 44.064 164.79C44.091 164.771 44.1119 164.743 44.1268 164.705C44.1417 164.668 44.1492 164.623 44.1492 164.57C44.1492 164.517 44.1417 164.472 44.1268 164.435C44.1119 164.398 44.091 164.37 44.064 164.35C44.0377 164.331 44.007 164.321 43.972 164.321C43.937 164.321 43.9061 164.331 43.8791 164.35C43.8528 164.37 43.8321 164.398 43.8172 164.435C43.8023 164.472 43.7948 164.517 43.7948 164.57C43.7948 164.623 43.8023 164.668 43.8172 164.705C43.8321 164.743 43.8528 164.771 43.8791 164.79C43.9061 164.81 43.937 164.82 43.972 164.82ZM44.5414 164.876C44.495 164.876 44.4534 164.864 44.4167 164.839C44.3806 164.815 44.3522 164.779 44.3316 164.734C44.3115 164.687 44.3015 164.633 44.3015 164.57C44.3015 164.508 44.3115 164.454 44.3316 164.408C44.3522 164.361 44.3806 164.326 44.4167 164.301C44.4534 164.276 44.495 164.264 44.5414 164.264C44.5879 164.264 44.6291 164.276 44.6653 164.301C44.702 164.326 44.7306 164.361 44.7513 164.408C44.7719 164.454 44.7822 164.508 44.7822 164.57C44.7822 164.633 44.7719 164.687 44.7513 164.734C44.7306 164.779 44.702 164.815 44.6653 164.839C44.6291 164.864 44.5879 164.876 44.5414 164.876ZM44.5414 164.82C44.5764 164.82 44.6071 164.81 44.6334 164.79C44.6604 164.771 44.6813 164.743 44.6962 164.705C44.7111 164.668 44.7186 164.623 44.7186 164.57C44.7186 164.517 44.7111 164.472 44.6962 164.435C44.6813 164.398 44.6604 164.37 44.6334 164.35C44.6071 164.331 44.5764 164.321 44.5414 164.321C44.5064 164.321 44.4755 164.331 44.4485 164.35C44.4222 164.37 44.4015 164.398 44.3866 164.435C44.3717 164.472 44.3643 164.517 44.3643 164.57C44.3643 164.623 44.3717 164.668 44.3866 164.705C44.4015 164.743 44.4222 164.771 44.4485 164.79C44.4755 164.81 44.5064 164.82 44.5414 164.82Z" fill="#6E6B7B"/>
<path d="M43.1141 202.919H43.3394V202.973H43.1141V202.919ZM43.8366 203.124V203.179H43.4143V203.135L43.6646 202.89C43.6961 202.859 43.7173 202.832 43.7282 202.81C43.7397 202.787 43.7454 202.764 43.7454 202.741C43.7454 202.706 43.7331 202.678 43.7085 202.659C43.6844 202.639 43.6497 202.629 43.6044 202.629C43.5339 202.629 43.4791 202.651 43.4401 202.696L43.3963 202.658C43.4198 202.63 43.4496 202.609 43.4857 202.594C43.5224 202.579 43.5637 202.572 43.6096 202.572C43.6709 202.572 43.7194 202.586 43.7549 202.616C43.791 202.644 43.8091 202.684 43.8091 202.734C43.8091 202.765 43.8022 202.795 43.7884 202.824C43.7747 202.852 43.7486 202.885 43.7102 202.923L43.5055 203.124H43.8366ZM44.1509 203.184C44.1045 203.184 44.0629 203.172 44.0262 203.147C43.9901 203.122 43.9617 203.087 43.9411 203.041C43.921 202.995 43.911 202.94 43.911 202.878C43.911 202.815 43.921 202.761 43.9411 202.715C43.9617 202.669 43.9901 202.633 44.0262 202.609C44.0629 202.584 44.1045 202.572 44.1509 202.572C44.1973 202.572 44.2386 202.584 44.2747 202.609C44.3114 202.633 44.3401 202.669 44.3607 202.715C44.3814 202.761 44.3917 202.815 44.3917 202.878C44.3917 202.94 44.3814 202.995 44.3607 203.041C44.3401 203.087 44.3114 203.122 44.2747 203.147C44.2386 203.172 44.1973 203.184 44.1509 203.184ZM44.1509 203.127C44.1859 203.127 44.2165 203.118 44.2429 203.098C44.2699 203.079 44.2908 203.05 44.3057 203.013C44.3206 202.976 44.3281 202.931 44.3281 202.878C44.3281 202.825 44.3206 202.78 44.3057 202.743C44.2908 202.706 44.2699 202.677 44.2429 202.658C44.2165 202.638 44.1859 202.629 44.1509 202.629C44.1159 202.629 44.085 202.638 44.058 202.658C44.0316 202.677 44.011 202.706 43.9961 202.743C43.9812 202.78 43.9737 202.825 43.9737 202.878C43.9737 202.931 43.9812 202.976 43.9961 203.013C44.011 203.05 44.0316 203.079 44.058 203.098C44.085 203.118 44.1159 203.127 44.1509 203.127ZM44.7203 203.184C44.6739 203.184 44.6323 203.172 44.5956 203.147C44.5595 203.122 44.5311 203.087 44.5105 203.041C44.4904 202.995 44.4804 202.94 44.4804 202.878C44.4804 202.815 44.4904 202.761 44.5105 202.715C44.5311 202.669 44.5595 202.633 44.5956 202.609C44.6323 202.584 44.6739 202.572 44.7203 202.572C44.7667 202.572 44.808 202.584 44.8441 202.609C44.8808 202.633 44.9095 202.669 44.9301 202.715C44.9508 202.761 44.9611 202.815 44.9611 202.878C44.9611 202.94 44.9508 202.995 44.9301 203.041C44.9095 203.087 44.8808 203.122 44.8441 203.147C44.808 203.172 44.7667 203.184 44.7203 203.184ZM44.7203 203.127C44.7553 203.127 44.786 203.118 44.8123 203.098C44.8393 203.079 44.8602 203.05 44.8751 203.013C44.89 202.976 44.8975 202.931 44.8975 202.878C44.8975 202.825 44.89 202.78 44.8751 202.743C44.8602 202.706 44.8393 202.677 44.8123 202.658C44.786 202.638 44.7553 202.629 44.7203 202.629C44.6853 202.629 44.6544 202.638 44.6274 202.658C44.6011 202.677 44.5804 202.706 44.5655 202.743C44.5506 202.78 44.5431 202.825 44.5431 202.878C44.5431 202.931 44.5506 202.976 44.5655 203.013C44.5804 203.05 44.6011 203.079 44.6274 203.098C44.6544 203.118 44.6853 203.127 44.7203 203.127Z" fill="#6E6B7B"/>
<defs>
<linearGradient id="paint0_linear_73_1668" x1="57.7536" y1="10" x2="57.7536" y2="201.539" gradientUnits="userSpaceOnUse">
<stop stop-color="#D8E3F0" stop-opacity="0.16"/>
<stop offset="1" stop-color="white" stop-opacity="0"/>
</linearGradient>
</defs>
</svg>
