<svg width="161" height="127" viewBox="0 0 161 127" fill="none" xmlns="http://www.w3.org/2000/svg">
<g clip-path="url(#clip0_73_1647)">
<path d="M70.3522 6.45899C78.5909 5.00399 87.0454 5.33762 95.1443 7.43732C103.243 9.53702 110.798 13.3538 117.297 18.6298C123.796 23.9057 129.088 30.5177 132.816 38.0188C136.544 45.5198 138.621 53.7352 138.905 62.1093C139.19 70.4834 137.676 78.8212 134.466 86.5589C131.256 94.2965 126.425 101.254 120.299 106.96C114.174 112.667 106.896 116.989 98.9583 119.636C91.0208 122.282 82.6085 123.191 74.29 122.301L76.4635 101.931C81.8705 102.51 87.3385 101.919 92.4979 100.199C97.6573 98.4783 102.388 95.6686 106.37 91.9595C110.351 88.2503 113.492 83.7281 115.578 78.6986C117.664 73.6691 118.648 68.2496 118.463 62.8064C118.278 57.3632 116.929 52.0232 114.505 47.1475C112.082 42.2718 108.642 37.974 104.418 34.5447C100.193 31.1153 95.2831 28.6344 90.0188 27.2696C84.7545 25.9048 79.2591 25.6879 73.9039 26.6337L70.3522 6.45899Z" fill="#28C76F" fill-opacity="0.4"/>
<path d="M74.29 122.301C64.2275 121.224 54.6166 117.548 46.3984 111.633C38.1802 105.719 31.6364 97.7677 27.4077 88.5592L45.99 79.9988C48.7387 85.9844 52.9922 91.1524 58.334 94.9969C63.6758 98.8415 69.9229 101.231 76.4635 101.931L74.29 122.301Z" fill="#28C76F" fill-opacity="0.2"/>
<path d="M27.4077 88.5592C23.3128 79.6424 21.5225 69.8373 22.2014 60.046C22.8803 50.2548 26.0065 40.7917 31.2926 32.5273C36.5787 24.263 43.8549 17.4626 52.4519 12.752C61.0488 8.04127 70.6904 5.57148 80.4898 5.56976L80.4934 26.0557C74.1238 26.0568 67.8567 27.6622 62.2687 30.7241C56.6807 33.7861 51.9512 38.2063 48.5152 43.5781C45.0792 48.9499 43.0472 55.1009 42.6059 61.4653C42.1646 67.8296 43.3283 74.2029 45.99 79.9988L27.4077 88.5592Z" fill="#28C76F"/>
<path d="M67.2301 78.0994H65.7528L70.0256 66.463H71.4801L75.7528 78.0994H74.2756L70.7983 68.3039H70.7074L67.2301 78.0994ZM67.7756 73.5539H73.7301V74.8039H67.7756V73.5539ZM77.3835 81.3721V69.3721H78.679V70.7585H78.8381C78.9366 70.6069 79.0729 70.4138 79.2472 70.1789C79.4252 69.9403 79.679 69.7282 80.0085 69.5425C80.3419 69.3532 80.7926 69.2585 81.3608 69.2585C82.0956 69.2585 82.7434 69.4422 83.304 69.8096C83.8646 70.177 84.3021 70.6978 84.6165 71.3721C84.9309 72.0463 85.0881 72.8418 85.0881 73.7585C85.0881 74.6827 84.9309 75.4838 84.6165 76.1619C84.3021 76.8361 83.8665 77.3588 83.3097 77.73C82.7528 78.0975 82.1108 78.2812 81.3835 78.2812C80.8229 78.2812 80.3741 78.1884 80.0369 78.0028C79.6998 77.8134 79.4403 77.5994 79.2585 77.3607C79.0767 77.1183 78.9366 76.9175 78.8381 76.7585H78.7244V81.3721H77.3835ZM78.7017 73.7357C78.7017 74.3948 78.7983 74.9763 78.9915 75.48C79.1847 75.98 79.4669 76.3721 79.8381 76.6562C80.2093 76.9365 80.6638 77.0766 81.2017 77.0766C81.7623 77.0766 82.2301 76.9289 82.6051 76.6335C82.9839 76.3342 83.268 75.9327 83.4574 75.4289C83.6506 74.9213 83.7472 74.3569 83.7472 73.7357C83.7472 73.1221 83.6525 72.5691 83.4631 72.0766C83.2775 71.5804 82.9953 71.1884 82.6165 70.9005C82.2415 70.6088 81.7699 70.463 81.2017 70.463C80.6563 70.463 80.1979 70.6013 79.8267 70.8778C79.4555 71.1505 79.1752 71.5331 78.9858 72.0255C78.7964 72.5141 78.7017 73.0842 78.7017 73.7357ZM87.1335 81.3721V69.3721H88.429V70.7585H88.5881C88.6866 70.6069 88.8229 70.4138 88.9972 70.1789C89.1752 69.9403 89.429 69.7282 89.7585 69.5425C90.0919 69.3532 90.5426 69.2585 91.1108 69.2585C91.8456 69.2585 92.4934 69.4422 93.054 69.8096C93.6146 70.177 94.0521 70.6978 94.3665 71.3721C94.6809 72.0463 94.8381 72.8418 94.8381 73.7585C94.8381 74.6827 94.6809 75.4838 94.3665 76.1619C94.0521 76.8361 93.6165 77.3588 93.0597 77.73C92.5028 78.0975 91.8608 78.2812 91.1335 78.2812C90.5729 78.2812 90.1241 78.1884 89.7869 78.0028C89.4498 77.8134 89.1903 77.5994 89.0085 77.3607C88.8267 77.1183 88.6866 76.9175 88.5881 76.7585H88.4744V81.3721H87.1335ZM88.4517 73.7357C88.4517 74.3948 88.5483 74.9763 88.7415 75.48C88.9347 75.98 89.2169 76.3721 89.5881 76.6562C89.9593 76.9365 90.4138 77.0766 90.9517 77.0766C91.5123 77.0766 91.9801 76.9289 92.3551 76.6335C92.7339 76.3342 93.018 75.9327 93.2074 75.4289C93.4006 74.9213 93.4972 74.3569 93.4972 73.7357C93.4972 73.1221 93.4025 72.5691 93.2131 72.0766C93.0275 71.5804 92.7453 71.1884 92.3665 70.9005C91.9915 70.6088 91.5199 70.463 90.9517 70.463C90.4063 70.463 89.9479 70.6013 89.5767 70.8778C89.2055 71.1505 88.9252 71.5331 88.7358 72.0255C88.5464 72.5141 88.4517 73.0842 88.4517 73.7357Z" fill="#373D3F"/>
<path d="M65.975 64.2698C65.1416 64.2698 64.3912 64.1041 63.7235 63.7727C63.0559 63.4412 62.5209 62.9867 62.1184 62.4091C61.716 61.8314 61.4958 61.1733 61.4579 60.4346H63.1625C63.2288 61.0928 63.527 61.6373 64.0574 62.0681C64.5924 62.4943 65.2316 62.7073 65.975 62.7073C66.5716 62.7073 67.1019 62.5677 67.5659 62.2883C68.0346 62.009 68.4016 61.6254 68.6667 61.1377C68.9366 60.6453 69.0716 60.089 69.0716 59.4687C69.0716 58.8342 68.9319 58.2684 68.6525 57.7713C68.3779 57.2694 67.9991 56.874 67.5162 56.5852C67.0332 56.2964 66.4816 56.1496 65.8613 56.1448C65.4163 56.1401 64.9593 56.2088 64.4906 56.3508C64.0218 56.4881 63.6359 56.6657 63.3329 56.8835L61.6852 56.6846L62.5659 49.5255H70.1227V51.088H64.0431L63.5318 55.3778H63.617C63.9153 55.1411 64.2894 54.9446 64.7392 54.7883C65.189 54.6321 65.6577 54.5539 66.1454 54.5539C67.0356 54.5539 67.8287 54.767 68.5247 55.1931C69.2254 55.6145 69.7747 56.1922 70.1724 56.9261C70.5749 57.66 70.7761 58.4981 70.7761 59.4403C70.7761 60.3683 70.5678 61.1969 70.1511 61.9261C69.7392 62.6505 69.171 63.2234 68.4466 63.6448C67.7221 64.0615 66.8983 64.2698 65.975 64.2698ZM78.5123 64.2698C77.5748 64.2698 76.7391 64.1089 76.0051 63.7869C75.276 63.4649 74.696 63.0175 74.2651 62.4446C73.839 61.8669 73.6069 61.1969 73.5691 60.4346H75.3588C75.3967 60.9034 75.5577 61.3082 75.8418 61.6491C76.1259 61.9853 76.4976 62.2457 76.9569 62.4304C77.4161 62.615 77.9251 62.7073 78.4838 62.7073C79.1088 62.7073 79.6628 62.5984 80.1458 62.3806C80.6287 62.1628 81.0075 61.8598 81.2821 61.4716C81.5568 61.0833 81.6941 60.6335 81.6941 60.1221C81.6941 59.5871 81.5615 59.116 81.2963 58.7088C81.0312 58.2968 80.6429 57.9749 80.1316 57.7429C79.6202 57.5109 78.9952 57.3948 78.2566 57.3948H77.0918V55.8323H78.2566C78.8342 55.8323 79.3408 55.7282 79.7765 55.5198C80.2168 55.3115 80.5601 55.018 80.8063 54.6392C81.0572 54.2604 81.1827 53.8153 81.1827 53.3039C81.1827 52.8115 81.0738 52.383 80.856 52.0184C80.6382 51.6538 80.3304 51.3698 79.9327 51.1662C79.5397 50.9626 79.0757 50.8608 78.5407 50.8608C78.0388 50.8608 77.5653 50.9531 77.1202 51.1377C76.6799 51.3177 76.32 51.5805 76.0407 51.9261C75.7613 52.267 75.6098 52.6789 75.5861 53.1619H73.8816C73.91 52.3996 74.1396 51.732 74.5705 51.1591C75.0014 50.5814 75.5648 50.1316 76.2608 49.8096C76.9616 49.4877 77.731 49.3267 78.5691 49.3267C79.4687 49.3267 80.2405 49.509 80.8844 49.8735C81.5284 50.2334 82.0231 50.7092 82.3688 51.3011C82.7144 51.893 82.8873 52.5322 82.8873 53.2187C82.8873 54.0378 82.6718 54.7362 82.2409 55.3139C81.8148 55.8915 81.2348 56.2916 80.5009 56.5142V56.6278C81.4194 56.7793 82.1368 57.1699 82.6529 57.7997C83.169 58.4247 83.427 59.1988 83.427 60.1221C83.427 60.9128 83.2116 61.6231 82.7807 62.2528C82.3546 62.8778 81.7722 63.3702 81.0336 63.7301C80.2949 64.0899 79.4545 64.2698 78.5123 64.2698ZM93.7466 61.3437V60.5767C93.7466 60.0464 93.8555 59.561 94.0733 59.1207C94.2959 58.6756 94.6178 58.3205 95.0392 58.0554C95.4654 57.7855 95.9815 57.6505 96.5875 57.6505C97.2031 57.6505 97.7192 57.7855 98.1358 58.0554C98.5525 58.3205 98.8674 58.6756 99.0804 59.1207C99.2935 59.561 99.4 60.0464 99.4 60.5767V61.3437C99.4 61.874 99.2911 62.3617 99.0733 62.8068C98.8603 63.2471 98.543 63.6022 98.1216 63.8721C97.705 64.1373 97.1936 64.2698 96.5875 64.2698C95.972 64.2698 95.4535 64.1373 95.0321 63.8721C94.6107 63.6022 94.2911 63.2471 94.0733 62.8068C93.8555 62.3617 93.7466 61.874 93.7466 61.3437ZM95.1955 60.5767V61.3437C95.1955 61.7841 95.2997 62.1794 95.508 62.5298C95.7163 62.8754 96.0762 63.0483 96.5875 63.0483C97.0847 63.0483 97.4351 62.8754 97.6387 62.5298C97.847 62.1794 97.9512 61.7841 97.9512 61.3437V60.5767C97.9512 60.1363 97.8517 59.7433 97.6529 59.3977C97.454 59.0473 97.0989 58.8721 96.5875 58.8721C96.0904 58.8721 95.7329 59.0473 95.5151 59.3977C95.302 59.7433 95.1955 60.1363 95.1955 60.5767ZM86.5023 53.0198V52.2528C86.5023 51.7225 86.6112 51.2372 86.829 50.7968C87.0516 50.3518 87.3735 49.9966 87.7949 49.7315C88.2211 49.4616 88.7372 49.3267 89.3432 49.3267C89.9587 49.3267 90.4748 49.4616 90.8915 49.7315C91.3082 49.9966 91.623 50.3518 91.8361 50.7968C92.0492 51.2372 92.1557 51.7225 92.1557 52.2528V53.0198C92.1557 53.5502 92.0468 54.0378 91.829 54.4829C91.6159 54.9233 91.2987 55.2784 90.8773 55.5483C90.4606 55.8134 89.9493 55.946 89.3432 55.946C88.7277 55.946 88.2092 55.8134 87.7878 55.5483C87.3664 55.2784 87.0468 54.9233 86.829 54.4829C86.6112 54.0378 86.5023 53.5502 86.5023 53.0198ZM87.9512 52.2528V53.0198C87.9512 53.4602 88.0553 53.8555 88.2637 54.2059C88.472 54.5516 88.8319 54.7244 89.3432 54.7244C89.8404 54.7244 90.1908 54.5516 90.3944 54.2059C90.6027 53.8555 90.7069 53.4602 90.7069 53.0198V52.2528C90.7069 51.8125 90.6074 51.4195 90.4086 51.0738C90.2097 50.7234 89.8546 50.5483 89.3432 50.5483C88.8461 50.5483 88.4886 50.7234 88.2708 51.0738C88.0577 51.4195 87.9512 51.8125 87.9512 52.2528ZM87.0421 64.071L97.0421 49.5255H98.6614L88.6614 64.071H87.0421Z" fill="#373D3F"/>
<path d="M0.5 0H160.5" stroke="white"/>
</g>
<defs>
<clipPath id="clip0_73_1647">
<rect width="161" height="127" fill="white"/>
</clipPath>
</defs>
</svg>
