<svg width="308" height="80" viewBox="0 0 308 80" fill="none" xmlns="http://www.w3.org/2000/svg">
<g clip-path="url(#clip0_73_1730)">
<path d="M0 0V80" stroke="white" stroke-dasharray="3 3"/>
<path d="M0 80H308" stroke="white"/>
<path d="M0 1V80" stroke="white"/>
<path d="M0 19C10.78 19 20.02 32 30.8 32C41.58 32 50.82 11 61.6 11C72.38 11 81.62 28 92.4 28C103.18 28 112.42 20 123.2 20C133.98 20 143.22 40 154 40C164.78 40 174.02 1 184.8 1C195.58 1 204.82 20 215.6 20C226.38 20 235.62 21 246.4 21C257.18 21 266.42 37 277.2 37C287.98 37 297.22 18 308 18" stroke="#7367F0" stroke-opacity="0.85" stroke-width="2"/>
<path d="M0 60C10.78 60 20.02 70 30.8 70C41.58 70 50.82 50 61.6 50C72.38 50 81.62 65 92.4 65C103.18 65 112.42 57 123.2 57C133.98 57 143.22 80 154 80C164.78 80 174.02 55 184.8 55C195.58 55 204.82 65 215.6 65C226.38 65 235.62 60 246.4 60C257.18 60 266.42 75 277.2 75C287.98 75 297.22 53 308 53" stroke="#DCDAE3" stroke-opacity="0.85" stroke-dasharray="5 5"/>
<path d="M0 0H308" stroke="white"/>
</g>
<defs>
<clipPath id="clip0_73_1730">
<rect width="308" height="80" fill="white"/>
</clipPath>
</defs>
</svg>
